<svg xmlns="http://www.w3.org/2000/svg" viewBox="0 0 800 480" width="800" height="480">
  <defs>
    <linearGradient id="bg" x1="0%" y1="0%" x2="100%" y2="100%">
      <stop offset="0%" style="stop-color:#080614"/>
      <stop offset="100%" style="stop-color:#0d0a1e"/>
    </linearGradient>
    <linearGradient id="lineGrad" x1="0%" y1="0%" x2="0%" y2="100%">
      <stop offset="0%" style="stop-color:rgba(139,92,246,0.4)"/>
      <stop offset="100%" style="stop-color:rgba(139,92,246,0.0)"/>
    </linearGradient>
    <filter id="shadow"><feDropShadow dx="0" dy="8" stdDeviation="16" flood-color="#8b5cf6" flood-opacity="0.2"/></filter>
    <filter id="glow"><feGaussianBlur stdDeviation="20" result="b"/><feMerge><feMergeNode in="b"/><feMergeNode in="SourceGraphic"/></feMerge></filter>
  </defs>

  <rect width="800" height="480" fill="url(#bg)"/>
  <circle cx="700" cy="80"  r="160" fill="none" stroke="#8b5cf6" stroke-width="1" opacity="0.07"/>
  <circle cx="700" cy="80"  r="110" fill="none" stroke="#8b5cf6" stroke-width="1" opacity="0.09"/>
  <circle cx="80"  cy="400" r="130" fill="none" stroke="#8b5cf6" stroke-width="1" opacity="0.07"/>
  <ellipse cx="250" cy="250" rx="200" ry="170" fill="#8b5cf6" opacity="0.04" filter="url(#glow)"/>

  <!-- Browser window -->
  <rect x="28" y="44" width="448" height="398" rx="13" fill="#0d0a1e" filter="url(#shadow)"/>
  <rect x="28" y="44" width="448" height="30" rx="13" fill="#130f26"/>
  <rect x="28" y="58" width="448" height="16" fill="#130f26"/>
  <circle cx="52" cy="59" r="5" fill="#ff5f57"/>
  <circle cx="66" cy="59" r="5" fill="#febc2e"/>
  <circle cx="80" cy="59" r="5" fill="#28c840"/>
  <rect x="100" y="52" width="260" height="14" rx="7" fill="rgba(255,255,255,0.05)"/>
  <text x="230" y="62" text-anchor="middle" font-family="system-ui" font-size="7.5" fill="rgba(255,255,255,0.25)">Admin Dashboard — Analytics</text>

  <!-- Top bar -->
  <rect x="28" y="74" width="448" height="28" fill="#100d22"/>
  <text x="46" y="92" font-family="system-ui" font-size="9" fill="#8b5cf6" font-weight="900">◆ ANALYTICS</text>
  <rect x="380" y="80" width="52" height="14" rx="7" fill="rgba(139,92,246,0.2)"/>
  <text x="406" y="90" text-anchor="middle" font-family="system-ui" font-size="7" fill="#8b5cf6">Export ↓</text>
  <circle cx="454" cy="87" r="9" fill="#8b5cf6" opacity="0.7"/>
  <text x="454" y="91" text-anchor="middle" font-family="system-ui" font-size="7.5" fill="white" font-weight="700">MC</text>

  <!-- KPI cards -->
  <rect x="36"  y="110" width="98" height="52" rx="8" fill="#130f26" stroke="rgba(139,92,246,0.2)" stroke-width="1"/>
  <text x="50"  y="126" font-family="system-ui" font-size="7" fill="rgba(255,255,255,0.4)" font-weight="600">USERS</text>
  <text x="50"  y="148" font-family="system-ui" font-size="16" fill="white" font-weight="900">12,483</text>
  <text x="118" y="148" font-family="system-ui" font-size="7.5" fill="#22c55e">▲8.2%</text>

  <rect x="142" y="110" width="98" height="52" rx="8" fill="#130f26" stroke="rgba(139,92,246,0.2)" stroke-width="1"/>
  <text x="156" y="126" font-family="system-ui" font-size="7" fill="rgba(255,255,255,0.4)" font-weight="600">REVENUE</text>
  <text x="156" y="148" font-family="system-ui" font-size="16" fill="white" font-weight="900">$48.2K</text>
  <text x="224" y="148" font-family="system-ui" font-size="7.5" fill="#22c55e">▲12%</text>

  <rect x="248" y="110" width="98" height="52" rx="8" fill="#130f26" stroke="rgba(139,92,246,0.2)" stroke-width="1"/>
  <text x="262" y="126" font-family="system-ui" font-size="7" fill="rgba(255,255,255,0.4)" font-weight="600">ORDERS</text>
  <text x="262" y="148" font-family="system-ui" font-size="16" fill="white" font-weight="900">3,241</text>
  <text x="324" y="148" font-family="system-ui" font-size="7.5" fill="#22c55e">▲5.4%</text>

  <rect x="354" y="110" width="112" height="52" rx="8" fill="rgba(139,92,246,0.12)" stroke="rgba(139,92,246,0.35)" stroke-width="1"/>
  <text x="368" y="126" font-family="system-ui" font-size="7" fill="rgba(255,255,255,0.5)" font-weight="600">GROWTH</text>
  <text x="368" y="148" font-family="system-ui" font-size="16" fill="#8b5cf6" font-weight="900">+22.8%</text>

  <!-- Line chart area -->
  <rect x="36" y="172" width="268" height="150" rx="8" fill="#130f26" stroke="rgba(139,92,246,0.15)" stroke-width="1"/>
  <text x="50" y="187" font-family="system-ui" font-size="8" fill="white" font-weight="700">Revenue Overview</text>
  <text x="242" y="187" font-family="system-ui" font-size="7" fill="rgba(255,255,255,0.35)">Last 7 days</text>

  <!-- Chart grid lines -->
  <line x1="50" y1="198" x2="290" y2="198" stroke="rgba(255,255,255,0.05)" stroke-width="1"/>
  <line x1="50" y1="215" x2="290" y2="215" stroke="rgba(255,255,255,0.05)" stroke-width="1"/>
  <line x1="50" y1="232" x2="290" y2="232" stroke="rgba(255,255,255,0.05)" stroke-width="1"/>
  <line x1="50" y1="249" x2="290" y2="249" stroke="rgba(255,255,255,0.05)" stroke-width="1"/>
  <line x1="50" y1="266" x2="290" y2="266" stroke="rgba(255,255,255,0.05)" stroke-width="1"/>
  <line x1="50" y1="283" x2="290" y2="283" stroke="rgba(255,255,255,0.05)" stroke-width="1"/>
  <line x1="50" y1="300" x2="290" y2="300" stroke="rgba(255,255,255,0.05)" stroke-width="1"/>

  <!-- Fill area under line -->
  <polygon points="50,300 84,270 118,255 152,240 186,225 220,215 254,200 290,195 290,310 50,310"
           fill="url(#lineGrad)" opacity="0.8"/>
  <!-- Line chart line -->
  <polyline points="50,300 84,270 118,255 152,240 186,225 220,215 254,200 290,195"
            fill="none" stroke="#8b5cf6" stroke-width="2.5" stroke-linecap="round" stroke-linejoin="round"/>
  <!-- Data points -->
  <circle cx="50"  cy="300" r="3.5" fill="#8b5cf6" stroke="#0d0a1e" stroke-width="1.5"/>
  <circle cx="84"  cy="270" r="3.5" fill="#8b5cf6" stroke="#0d0a1e" stroke-width="1.5"/>
  <circle cx="118" cy="255" r="3.5" fill="#8b5cf6" stroke="#0d0a1e" stroke-width="1.5"/>
  <circle cx="152" cy="240" r="3.5" fill="#8b5cf6" stroke="#0d0a1e" stroke-width="1.5"/>
  <circle cx="186" cy="225" r="3.5" fill="#8b5cf6" stroke="#0d0a1e" stroke-width="1.5"/>
  <circle cx="220" cy="215" r="3.5" fill="#8b5cf6" stroke="#0d0a1e" stroke-width="1.5"/>
  <circle cx="254" cy="200" r="3.5" fill="#8b5cf6" stroke="#0d0a1e" stroke-width="1.5"/>
  <circle cx="290" cy="195" r="4.5" fill="#a78bfa" stroke="#0d0a1e" stroke-width="2"/>

  <!-- X labels -->
  <text x="50"  y="318" text-anchor="middle" font-family="system-ui" font-size="6.5" fill="rgba(255,255,255,0.3)">Mon</text>
  <text x="84"  y="318" text-anchor="middle" font-family="system-ui" font-size="6.5" fill="rgba(255,255,255,0.3)">Tue</text>
  <text x="118" y="318" text-anchor="middle" font-family="system-ui" font-size="6.5" fill="rgba(255,255,255,0.3)">Wed</text>
  <text x="152" y="318" text-anchor="middle" font-family="system-ui" font-size="6.5" fill="rgba(255,255,255,0.3)">Thu</text>
  <text x="186" y="318" text-anchor="middle" font-family="system-ui" font-size="6.5" fill="rgba(255,255,255,0.3)">Fri</text>
  <text x="220" y="318" text-anchor="middle" font-family="system-ui" font-size="6.5" fill="rgba(255,255,255,0.3)">Sat</text>
  <text x="254" y="318" text-anchor="middle" font-family="system-ui" font-size="6.5" fill="rgba(255,255,255,0.3)">Sun</text>

  <!-- Donut chart -->
  <rect x="314" y="172" width="150" height="150" rx="8" fill="#130f26" stroke="rgba(139,92,246,0.15)" stroke-width="1"/>
  <text x="328" y="187" font-family="system-ui" font-size="8" fill="white" font-weight="700">User Roles</text>
  <!-- Donut (simplified arcs as stroke-dasharray circles) -->
  <circle cx="389" cy="265" r="36" fill="none" stroke="#8b5cf6" stroke-width="14" stroke-dasharray="113 113" transform="rotate(-90 389 265)" opacity="0.9"/>
  <circle cx="389" cy="265" r="36" fill="none" stroke="#0ea5e9" stroke-width="14" stroke-dasharray="68 158" stroke-dashoffset="-113" transform="rotate(-90 389 265)" opacity="0.9"/>
  <circle cx="389" cy="265" r="36" fill="none" stroke="#22c55e" stroke-width="14" stroke-dasharray="45 181" stroke-dashoffset="-181" transform="rotate(-90 389 265)" opacity="0.9"/>
  <!-- Center text -->
  <text x="389" y="262" text-anchor="middle" font-family="system-ui" font-size="11" fill="white" font-weight="900">12.4K</text>
  <text x="389" y="273" text-anchor="middle" font-family="system-ui" font-size="7" fill="rgba(255,255,255,0.4)">Total</text>
  <!-- Legend -->
  <circle cx="326" cy="314" r="4" fill="#8b5cf6"/>
  <text x="334" y="318" font-family="system-ui" font-size="7" fill="rgba(255,255,255,0.5)">Admin 50%</text>
  <circle cx="380" cy="314" r="4" fill="#0ea5e9"/>
  <text x="388" y="318" font-family="system-ui" font-size="7" fill="rgba(255,255,255,0.5)">User 30%</text>
  <circle cx="326" cy="326" r="4" fill="#22c55e"/>
  <text x="334" y="330" font-family="system-ui" font-size="7" fill="rgba(255,255,255,0.5)">Guest 20%</text>

  <!-- Bottom row: activity -->
  <rect x="36" y="332" width="430" height="96" rx="8" fill="#130f26" stroke="rgba(139,92,246,0.1)" stroke-width="1"/>
  <text x="50" y="347" font-family="system-ui" font-size="8" fill="white" font-weight="700">Recent Activity</text>
  <text x="50" y="364" font-family="system-ui" font-size="7.5" fill="rgba(255,255,255,0.4)">● User John D. logged in from Chrome — 2 min ago</text>
  <text x="50" y="378" font-family="system-ui" font-size="7.5" fill="rgba(255,255,255,0.4)">● New order #4821 created — $842 — 14 min ago</text>
  <text x="50" y="392" font-family="system-ui" font-size="7.5" fill="rgba(255,255,255,0.4)">● Report &quot;Q1 Revenue&quot; exported — 1 hr ago</text>
  <text x="50" y="406" font-family="system-ui" font-size="7.5" fill="rgba(255,255,255,0.4)">● Role updated: Maria S. → Admin — 2 hr ago</text>

  <!-- ── Right info panel ── -->
  <text x="510" y="108" font-family="system-ui" font-size="10" fill="rgba(139,92,246,0.8)" font-weight="700" letter-spacing="1">ANALYTICS</text>
  <text x="510" y="138" font-family="system-ui" font-size="26" fill="white" font-weight="900" letter-spacing="-0.8">Admin</text>
  <text x="510" y="166" font-family="system-ui" font-size="26" fill="#8b5cf6" font-weight="900" letter-spacing="-0.8">Dashboard</text>
  <text x="510" y="194" font-family="system-ui" font-size="10" fill="rgba(255,255,255,0.5)">Real-time KPIs, charts,</text>
  <text x="510" y="208" font-family="system-ui" font-size="10" fill="rgba(255,255,255,0.5)">role management &amp; reports.</text>
  <line x1="510" y1="224" x2="770" y2="224" stroke="rgba(139,92,246,0.15)" stroke-width="1"/>
  <text x="510" y="252" font-family="system-ui" font-size="20" fill="white" font-weight="900">12K+</text>
  <text x="510" y="265" font-family="system-ui" font-size="8.5" fill="rgba(255,255,255,0.4)">Users Tracked</text>
  <text x="610" y="252" font-family="system-ui" font-size="20" fill="white" font-weight="900">$48K</text>
  <text x="610" y="265" font-family="system-ui" font-size="8.5" fill="rgba(255,255,255,0.4)">Monthly Revenue</text>
  <!-- Tech tags -->
  <rect x="510" y="284" width="52" height="19" rx="9.5" fill="rgba(139,92,246,0.12)" stroke="rgba(139,92,246,0.25)" stroke-width="1"/>
  <text x="536" y="297" text-anchor="middle" font-family="system-ui" font-size="8.5" fill="#8b5cf6" font-weight="600">React</text>
  <rect x="570" y="284" width="74" height="19" rx="9.5" fill="rgba(139,92,246,0.12)" stroke="rgba(139,92,246,0.25)" stroke-width="1"/>
  <text x="607" y="297" text-anchor="middle" font-family="system-ui" font-size="8.5" fill="#8b5cf6" font-weight="600">TypeScript</text>
  <rect x="510" y="310" width="74" height="19" rx="9.5" fill="rgba(139,92,246,0.12)" stroke="rgba(139,92,246,0.25)" stroke-width="1"/>
  <text x="547" y="323" text-anchor="middle" font-family="system-ui" font-size="8.5" fill="#8b5cf6" font-weight="600">.NET Web API</text>
  <rect x="592" y="310" width="66" height="19" rx="9.5" fill="rgba(139,92,246,0.12)" stroke="rgba(139,92,246,0.25)" stroke-width="1"/>
  <text x="625" y="323" text-anchor="middle" font-family="system-ui" font-size="8.5" fill="#8b5cf6" font-weight="600">SQL Server</text>
</svg>
